PathFileType	4	(X/Y/Z)	32_2_95_p1_0-269.trc
DataRate	CameraRate	NumFrames	NumMarkers	Units	OrigDataRate	OrigDataStartFrame	OrigNumFrames
60.0	60.0	5	27	m	60.0	33	270
Frame#	Time	RHip			RKnee			RAnkle			RBigToe			RSmallToe			RHeel			LHip			LKnee			LAnkle			LBigToe			LSmallToe			LHeel			Neck			Head			Nose			RShoulder			RElbow			RWrist			RThumb			RIndex			RPinky			LShoulder			LElbow			LWrist			LThumb			LIndex			LPinky			
		X1	Y1	Z1	X2	Y2	Z2	X3	Y3	Z3	X4	Y4	Z4	X5	Y5	Z5	X6	Y6	Z6	X7	Y7	Z7	X8	Y8	Z8	X9	Y9	Z9	X10	Y10	Z10	X11	Y11	Z11	X12	Y12	Z12	X13	Y13	Z13	X14	Y14	Z14	X15	Y15	Z15	X16	Y16	Z16	X17	Y17	Z17	X18	Y18	Z18	X19	Y19	Z19	X20	Y20	Z20	X21	Y21	Z21	X22	Y22	Z22	X23	Y23	Z23	X24	Y24	Z24	X25	Y25	Z25	X26	Y26	Z26	X27	Y27	Z27	
33	0.55	0.33363015695292186	0.4328368981769145	1.0581023022235283	0.3299033889023666	0.45591810600179217	1.4998056284282213	0.31826599023554814	0.49484160300735247	1.9097802727617896	0.31028760710471465	0.3232654929641971	1.9069396613102967	0.36852834122595035	0.34159464915468357	1.9155669062098113	0.2901635661684962	0.5844096289211633	2.0146491272643585	0.1385692605261949	0.42993007075960965	1.0703075284634376	0.13182166175041055	0.5100859008889067	1.5272524724303573	0.1226027897390431	0.5170967017879455	1.9420355845244184	0.14334265114313724	0.31259861492183205	1.9073815019039422	0.09289781060764328	0.365059756042117	1.930092762884824	0.13822248346376362	0.5378164548730058	1.9869162098163398	0.22193485516166894	0.4062958742580104	0.5315358686943258	0.21249683676884495	0.3829892422851044	0.299803485146133	0.20009065825449024	0.33499009318640455	0.40986447133477333	0.365582811326355	0.4396129706769451	0.6125317008560952	0.3958320560126088	0.42097340764217356	0.8798076662885994	0.30593839527979333	0.29185736674346335	1.0637995190373326	0.19560893479162478	0.256733805795845	1.1204115929806153	0.2034370863748199	0.26440320092322683	1.1396521534913588	0.23984610101462536	0.2994900210305411	1.1740763825335248	0.07526463138301932	0.4373384875573849	0.6227166956122956	0.05754295416657988	0.3978775823479588	0.8790998254652205	0.17539615835184608	0.29474182954566336	1.0633345666258756	0.23771565915231802	0.27776845621662305	1.1237436688332307	0.23463305202598939	0.2746652994580436	1.1539165311494355	0.22346242141241268	0.2984881047357563	1.1626660632281072
34	0.5666666666666667	0.3336067435480874	0.43269981478917136	1.0579859842362054	0.3335874641081225	0.4596665500866487	1.4974859893751233	0.3183862064101695	0.49513089060446996	1.9098926893974106	0.3113696047005736	0.32461090518315794	1.9129874342540165	0.3685317326398628	0.3411408316823415	1.9158380524632133	0.29906925937437634	0.5828505020017285	2.0124110935153112	0.14279431522338915	0.43223648589071423	1.0707809793252696	0.1379193569985136	0.4975219119971809	1.52604518282718	0.12258521776040356	0.5168563964355031	1.9417058775809275	0.14283187560577829	0.31135040171533096	1.9019706900534297	0.09404825205157147	0.36443171835605553	1.9259185100742746	0.13826127885992873	0.5376563850643575	1.986777125161473	0.22187487583898538	0.4061785065720938	0.5314934141978711	0.21250141086444685	0.38298911207906167	0.29985970472073525	0.19999440185888998	0.3348907713327952	0.40992330217068534	0.36548576081711837	0.43956059180304335	0.6125728566826761	0.40007897189393693	0.4080461893859931	0.8724473592215697	0.30300814583169533	0.28170904791568846	1.0599093354229627	0.19529896775875052	0.256237022994029	1.1271796235581135	0.2058660644934437	0.2744250136061315	1.1507951614749907	0.24345456868410342	0.30023794444484686	1.176996370039592	0.07535758978638403	0.4373944227990031	0.6227633986647226	0.05765876929707643	0.3982304372549496	0.8793633168191143	0.17546867414426	0.2946069115424697	1.0633515147581183	0.2320134646600567	0.28916485044163365	1.1336538609494216	0.23792208799297238	0.27637473667282864	1.154790860206653	0.22286783251631276	0.2996783115785104	1.1601387934504872
35	0.5833333333333334	0.3301049091647169	0.4216783573951156	1.0542510540445191	0.3299390422774474	0.45566605912385094	1.4999700330320116	0.3183782135786518	0.49513048871604465	1.909842612610798	0.3103547581777575	0.32336241114059994	1.9073402222465574	0.3685242730270491	0.3413782017819685	1.9156409126573426	0.3000931066292068	0.5823183179958766	2.007104333786452	0.1435466006952837	0.43218040190525314	1.0663356846018461	0.13795501461866136	0.49750548683197626	1.5262001071628202	0.12699996038983455	0.5192204074419706	1.9427746873703886	0.14351658037818973	0.31263505401461583	1.9073762322873944	0.09408592455629025	0.3641264519011332	1.925889689324954	0.1382518261176508	0.5378195885868507	1.9866994974532906	0.22187120854037579	0.4061449291061655	0.5315050955844713	0.21250261940559237	0.3831194562149285	0.29981444999953794	0.1999171145455318	0.3348547813827495	0.41003058736777004	0.36541451161553573	0.43943117174673885	0.6126424503418167	0.3957111238379384	0.4206283453469283	0.8796662970087668	0.3029876895897961	0.2816069160443789	1.0597172445090044	0.19553826039420327	0.25430447158110253	1.1311194153343447	0.2033041529752	0.2635493784932249	1.1470419326724168	0.247808915170284	0.302564361322787	1.1819821847511978	0.07532946510572601	0.4375097126522078	0.6228121574944896	0.05772864869728429	0.3981720874346498	0.8793383022957789	0.17124909519344947	0.3054519057316583	1.0714637791321053	0.22824133273399416	0.27822226362090485	1.1316951033110279	0.2332595975089929	0.28795924529442357	1.1595400622968741	0.22265644476384716	0.2976875976259421	1.163319198278273
36	0.6	0.33003376187863487	0.42174182362312307	1.0539628129496752	0.33401466768630655	0.45799584182748704	1.5005945512797585	0.3228176255806817	0.4796901523649613	1.8994937607016025	0.31121285081604216	0.32461968723830936	1.9118179093197574	0.3679907156059343	0.34313341574489326	1.9119210518642271	0.30020155858542846	0.5817447097413542	2.006509527270585	0.14604613340042272	0.4434789303128185	1.0698244877143896	0.13718562495238606	0.49617410641581877	1.520564033714077	0.12255554574594324	0.517078527759399	1.9419770870643058	0.1433329009010353	0.31293556884640983	1.907758516485698	0.09406986915632255	0.3642956611987885	1.9260154090364194	0.13828998333640824	0.5377494948139493	1.9871197647370071	0.22181846960481827	0.40598989298791566	0.5314067943775453	0.20896956217550144	0.38066674064856	0.2997889501062498	0.19980811469176266	0.3347837639831898	0.4099792398887766	0.3653288352605099	0.4392413721924458	0.6126343690974027	0.39543201233699604	0.40671488203171763	0.86435379775525	0.3001714428727398	0.2707214213664117	1.0481421426087076	0.2003693708452369	0.25454129833595873	1.131800655343251	0.20342133567232987	0.2643886723955261	1.147504017606449	0.2479899201929643	0.30268066957647854	1.181881164741915	0.07518921980279435	0.43732455285014443	0.6228049528171886	0.06017948550157184	0.40937769036612864	0.8826352710743438	0.168774156835532	0.29455418162239827	1.0679724741930956	0.2278985446068261	0.2766321137424128	1.1350702833374884	0.23293026910518536	0.2882002107724591	1.1600435249255003	0.2220793294002431	0.2976157811847864	1.1641816143101524
37	0.6166666666666667	0.3300736982819033	0.4215273539807853	1.0538934817275043	0.32995158678782466	0.4555173064111096	1.4996272728165156	0.3226952787670138	0.47970596995489534	1.899519730561582	0.3101913758174567	0.3231370938935113	1.906556707787039	0.3679435544093245	0.343233363777548	1.9116893775191028	0.2961665903554883	0.5684066224373936	1.9981218551755264	0.13903509640957332	0.42930226698369317	1.0641905342318771	0.13798922606115677	0.49615245465645275	1.5164140872253322	0.12252954034054436	0.5170537579774198	1.9419823254314992	0.14329881506456055	0.31284900848937713	1.9076449013747705	0.09409872518257943	0.3642823319824853	1.926110779464908	0.13825267520830634	0.5375747957645657	1.9870966277717204	0.22179582019706084	0.40596184056711154	0.5314391891111653	0.2090867129916114	0.38025828446037413	0.3026215731118671	0.19975985073948033	0.33474107687267096	0.4100020877304678	0.3653160124010552	0.4391866175100657	0.6126966168952219	0.39568050410704175	0.4055684286248226	0.8672747382376323	0.3007753057406842	0.2718352898133491	1.0518087887875465	0.19679839863013196	0.26336198858281845	1.1411100103240646	0.2026595106799874	0.2645393493752658	1.1511063862510102	0.24765788108467585	0.3032129452121283	1.1819842342038456	0.07514445104131529	0.437364973552067	0.6227960741069228	0.060202690733454106	0.4095108748832818	0.8826669836453158	0.1651086032743729	0.2928085813500296	1.0641329356442184	0.21956289404129928	0.27760200028336846	1.1364619254098127	0.22866067002164886	0.29870372559192665	1.167955871106523	0.21749501408224498	0.3091171203910908	1.1700506804635848
